<mxfile host="app.diagrams.net" modified="2021-03-09T05:20:22.540Z" agent="5.0 (Windows NT 10.0; Win64; x64) AppleWebKit/537.36 (KHTML, like Gecko) Chrome/88.0.4324.190 Safari/537.36" etag="xTitiAaWqAv5miEAwv92" version="14.4.3" type="github" pages="2">
  <diagram id="cmvr54z6tJa5u3F3zZn5" name="Page-1">
    <mxGraphModel dx="1422" dy="800" grid="1" gridSize="10" guides="1" tooltips="1" connect="1" arrows="1" fold="1" page="1" pageScale="1" pageWidth="850" pageHeight="1100" math="0" shadow="0">
      <root>
        <mxCell id="0" />
        <mxCell id="1" parent="0" />
        <mxCell id="YW_miaES-gx7ab2omepX-1" value="Company_Employee_Assignments" style="shape=table;startSize=30;container=1;collapsible=1;childLayout=tableLayout;fixedRows=1;rowLines=0;fontStyle=1;align=center;resizeLast=1;" vertex="1" parent="1">
          <mxGeometry x="40" y="90" width="230" height="550" as="geometry" />
        </mxCell>
        <mxCell id="YW_miaES-gx7ab2omepX-2" value="" style="shape=partialRectangle;collapsible=0;dropTarget=0;pointerEvents=0;fillColor=none;top=0;left=0;bottom=1;right=0;points=[[0,0.5],[1,0.5]];portConstraint=eastwest;" vertex="1" parent="YW_miaES-gx7ab2omepX-1">
          <mxGeometry y="30" width="230" height="30" as="geometry" />
        </mxCell>
        <mxCell id="YW_miaES-gx7ab2omepX-3" value="PK" style="shape=partialRectangle;connectable=0;fillColor=none;top=0;left=0;bottom=0;right=0;fontStyle=1;overflow=hidden;" vertex="1" parent="YW_miaES-gx7ab2omepX-2">
          <mxGeometry width="30" height="30" as="geometry" />
        </mxCell>
        <mxCell id="YW_miaES-gx7ab2omepX-4" value="EmployeeID" style="shape=partialRectangle;connectable=0;fillColor=none;top=0;left=0;bottom=0;right=0;align=left;spacingLeft=6;fontStyle=5;overflow=hidden;" vertex="1" parent="YW_miaES-gx7ab2omepX-2">
          <mxGeometry x="30" width="200" height="30" as="geometry" />
        </mxCell>
        <mxCell id="YW_miaES-gx7ab2omepX-5" value="" style="shape=partialRectangle;collapsible=0;dropTarget=0;pointerEvents=0;fillColor=none;top=0;left=0;bottom=0;right=0;points=[[0,0.5],[1,0.5]];portConstraint=eastwest;" vertex="1" parent="YW_miaES-gx7ab2omepX-1">
          <mxGeometry y="60" width="230" height="30" as="geometry" />
        </mxCell>
        <mxCell id="YW_miaES-gx7ab2omepX-6" value="" style="shape=partialRectangle;connectable=0;fillColor=none;top=0;left=0;bottom=0;right=0;editable=1;overflow=hidden;" vertex="1" parent="YW_miaES-gx7ab2omepX-5">
          <mxGeometry width="30" height="30" as="geometry" />
        </mxCell>
        <mxCell id="YW_miaES-gx7ab2omepX-7" value="EmployeeName" style="shape=partialRectangle;connectable=0;fillColor=none;top=0;left=0;bottom=0;right=0;align=left;spacingLeft=6;overflow=hidden;" vertex="1" parent="YW_miaES-gx7ab2omepX-5">
          <mxGeometry x="30" width="200" height="30" as="geometry" />
        </mxCell>
        <mxCell id="YW_miaES-gx7ab2omepX-8" value="" style="shape=partialRectangle;collapsible=0;dropTarget=0;pointerEvents=0;fillColor=none;top=0;left=0;bottom=0;right=0;points=[[0,0.5],[1,0.5]];portConstraint=eastwest;" vertex="1" parent="YW_miaES-gx7ab2omepX-1">
          <mxGeometry y="90" width="230" height="30" as="geometry" />
        </mxCell>
        <mxCell id="YW_miaES-gx7ab2omepX-9" value="" style="shape=partialRectangle;connectable=0;fillColor=none;top=0;left=0;bottom=0;right=0;editable=1;overflow=hidden;" vertex="1" parent="YW_miaES-gx7ab2omepX-8">
          <mxGeometry width="30" height="30" as="geometry" />
        </mxCell>
        <mxCell id="YW_miaES-gx7ab2omepX-10" value="EmployeeAddressStreet" style="shape=partialRectangle;connectable=0;fillColor=none;top=0;left=0;bottom=0;right=0;align=left;spacingLeft=6;overflow=hidden;" vertex="1" parent="YW_miaES-gx7ab2omepX-8">
          <mxGeometry x="30" width="200" height="30" as="geometry" />
        </mxCell>
        <mxCell id="YW_miaES-gx7ab2omepX-11" value="" style="shape=partialRectangle;collapsible=0;dropTarget=0;pointerEvents=0;fillColor=none;top=0;left=0;bottom=0;right=0;points=[[0,0.5],[1,0.5]];portConstraint=eastwest;" vertex="1" parent="YW_miaES-gx7ab2omepX-1">
          <mxGeometry y="120" width="230" height="30" as="geometry" />
        </mxCell>
        <mxCell id="YW_miaES-gx7ab2omepX-12" value="" style="shape=partialRectangle;connectable=0;fillColor=none;top=0;left=0;bottom=0;right=0;editable=1;overflow=hidden;" vertex="1" parent="YW_miaES-gx7ab2omepX-11">
          <mxGeometry width="30" height="30" as="geometry" />
        </mxCell>
        <mxCell id="YW_miaES-gx7ab2omepX-13" value="EmployeeAddressCity" style="shape=partialRectangle;connectable=0;fillColor=none;top=0;left=0;bottom=0;right=0;align=left;spacingLeft=6;overflow=hidden;" vertex="1" parent="YW_miaES-gx7ab2omepX-11">
          <mxGeometry x="30" width="200" height="30" as="geometry" />
        </mxCell>
        <mxCell id="YW_miaES-gx7ab2omepX-14" value="Unnormalized ERD" style="text;strokeColor=none;fillColor=none;align=left;verticalAlign=top;spacingLeft=4;spacingRight=4;overflow=hidden;rotatable=0;points=[[0,0.5],[1,0.5]];portConstraint=eastwest;fontStyle=1;fontSize=16;" vertex="1" parent="1">
          <mxGeometry x="75" y="50" width="160" height="26" as="geometry" />
        </mxCell>
        <mxCell id="YW_miaES-gx7ab2omepX-15" value="EmployeeNumberCell" style="shape=partialRectangle;connectable=0;fillColor=none;top=0;left=0;bottom=0;right=0;align=left;spacingLeft=6;overflow=hidden;" vertex="1" parent="1">
          <mxGeometry x="70" y="330" width="200" height="30" as="geometry" />
        </mxCell>
        <mxCell id="YW_miaES-gx7ab2omepX-16" value="EmployeeEmail" style="shape=partialRectangle;connectable=0;fillColor=none;top=0;left=0;bottom=0;right=0;align=left;spacingLeft=6;overflow=hidden;" vertex="1" parent="1">
          <mxGeometry x="70" y="360" width="200" height="30" as="geometry" />
        </mxCell>
        <mxCell id="YW_miaES-gx7ab2omepX-17" value="EmployeeDateOfBirth" style="shape=partialRectangle;connectable=0;fillColor=none;top=0;left=0;bottom=0;right=0;align=left;spacingLeft=6;overflow=hidden;" vertex="1" parent="1">
          <mxGeometry x="70" y="390" width="200" height="30" as="geometry" />
        </mxCell>
        <mxCell id="YW_miaES-gx7ab2omepX-18" value="EmployeeSalary" style="shape=partialRectangle;connectable=0;fillColor=none;top=0;left=0;bottom=0;right=0;align=left;spacingLeft=6;overflow=hidden;" vertex="1" parent="1">
          <mxGeometry x="70" y="420" width="200" height="30" as="geometry" />
        </mxCell>
        <mxCell id="YW_miaES-gx7ab2omepX-19" value="JobTitle" style="shape=partialRectangle;connectable=0;fillColor=none;top=0;left=0;bottom=0;right=0;align=left;spacingLeft=6;overflow=hidden;" vertex="1" parent="1">
          <mxGeometry x="70" y="450" width="200" height="30" as="geometry" />
        </mxCell>
        <mxCell id="YW_miaES-gx7ab2omepX-20" value="JobDesc" style="shape=partialRectangle;connectable=0;fillColor=none;top=0;left=0;bottom=0;right=0;align=left;spacingLeft=6;overflow=hidden;" vertex="1" parent="1">
          <mxGeometry x="70" y="480" width="200" height="30" as="geometry" />
        </mxCell>
        <mxCell id="YW_miaES-gx7ab2omepX-21" value="DepartmentCode" style="shape=partialRectangle;connectable=0;fillColor=none;top=0;left=0;bottom=0;right=0;align=left;spacingLeft=6;overflow=hidden;" vertex="1" parent="1">
          <mxGeometry x="70" y="510" width="200" height="30" as="geometry" />
        </mxCell>
        <mxCell id="YW_miaES-gx7ab2omepX-22" value="DepartmentDesc" style="shape=partialRectangle;connectable=0;fillColor=none;top=0;left=0;bottom=0;right=0;align=left;spacingLeft=6;overflow=hidden;" vertex="1" parent="1">
          <mxGeometry x="70" y="540" width="200" height="30" as="geometry" />
        </mxCell>
        <mxCell id="YW_miaES-gx7ab2omepX-23" value="DepartmentNumber" style="shape=partialRectangle;connectable=0;fillColor=none;top=0;left=0;bottom=0;right=0;align=left;spacingLeft=6;overflow=hidden;" vertex="1" parent="1">
          <mxGeometry x="70" y="570" width="200" height="30" as="geometry" />
        </mxCell>
        <mxCell id="YW_miaES-gx7ab2omepX-24" value="DepartmentEmail" style="shape=partialRectangle;connectable=0;fillColor=none;top=0;left=0;bottom=0;right=0;align=left;spacingLeft=6;overflow=hidden;" vertex="1" parent="1">
          <mxGeometry x="70" y="600" width="200" height="30" as="geometry" />
        </mxCell>
        <mxCell id="YW_miaES-gx7ab2omepX-25" value="EmployeeAddressState" style="shape=partialRectangle;connectable=0;fillColor=none;top=0;left=0;bottom=0;right=0;align=left;spacingLeft=6;overflow=hidden;" vertex="1" parent="1">
          <mxGeometry x="70" y="240" width="200" height="30" as="geometry" />
        </mxCell>
        <mxCell id="YW_miaES-gx7ab2omepX-26" value="EmployeeAddressZip" style="shape=partialRectangle;connectable=0;fillColor=none;top=0;left=0;bottom=0;right=0;align=left;spacingLeft=6;overflow=hidden;" vertex="1" parent="1">
          <mxGeometry x="70" y="270" width="200" height="30" as="geometry" />
        </mxCell>
        <mxCell id="YW_miaES-gx7ab2omepX-27" value="EmployeeAddressCountry" style="shape=partialRectangle;connectable=0;fillColor=none;top=0;left=0;bottom=0;right=0;align=left;spacingLeft=6;overflow=hidden;" vertex="1" parent="1">
          <mxGeometry x="70" y="300" width="200" height="30" as="geometry" />
        </mxCell>
      </root>
    </mxGraphModel>
  </diagram>
  <diagram id="R1y9jOZPBVmPLqngSVH0" name="Page-2">
    <mxGraphModel dx="1422" dy="800" grid="1" gridSize="10" guides="1" tooltips="1" connect="1" arrows="1" fold="1" page="1" pageScale="1" pageWidth="850" pageHeight="1100" math="0" shadow="0">
      <root>
        <mxCell id="wtzSjBUU3mw60ss9ocld-0" />
        <mxCell id="wtzSjBUU3mw60ss9ocld-1" parent="wtzSjBUU3mw60ss9ocld-0" />
      </root>
    </mxGraphModel>
  </diagram>
</mxfile>
